#N canvas 596 201 831 702 10;
#X obj 177 467 hsl 128 15 0.01 1 1 0 empty empty empty -2 -8 0 10 -4034
-1 -1 0 1;
#X obj 71 558 dac~;
#X obj 74 494 *~, f 4;
#X obj 108 131 notein;
#X floatatom 192 165 5 0 0 0 - - -, f 5;
#X floatatom 240 165 5 0 0 0 - - -, f 5;
#X obj 108 193 pack 0 0 0;
#X obj 64 399 ssVoice;
#X obj 205 400 ssVoice;
#X floatatom 278 322 5 0 20 0 - - -, f 5;
#X floatatom 264 301 5 200 1000 0 - - -, f 5;
#X text 305 301 Frequency x 0.01;
#X text 319 322 Depth;
#X obj 394 163 repack;
#X msg 403 31 devices;
#X msg 432 57 open \$1;
#X obj 475 27 hradio 15 1 0 5 empty empty empty 0 -8 0 10 -4032 -1
-1 1;
#X msg 445 79 close;
#X msg 462 101 info;
#X floatatom 394 220 5 0 0 0 - - -, f 5;
#X obj 394 261 mapping/autoscale 200 1000;
#X obj 394 192 unpack f;
#X obj 108 221 route 1 2 3 4;
#X obj 265 400 ssVoice;
#X obj 135 400 ssVoice;
#X obj 108 164 poly 4 1;
#X obj 394 134 comport 0 9600;
#X connect 0 0 2 1;
#X connect 2 0 1 0;
#X connect 2 0 1 1;
#X connect 3 0 4 0;
#X connect 3 0 25 0;
#X connect 3 1 5 0;
#X connect 3 1 25 1;
#X connect 6 0 22 0;
#X connect 7 0 2 0;
#X connect 8 0 2 0;
#X connect 9 0 8 2;
#X connect 9 0 7 2;
#X connect 9 0 24 2;
#X connect 9 0 23 2;
#X connect 10 0 8 1;
#X connect 10 0 7 1;
#X connect 10 0 24 1;
#X connect 10 0 23 1;
#X connect 13 0 21 0;
#X connect 14 0 26 0;
#X connect 15 0 26 0;
#X connect 16 0 15 0;
#X connect 17 0 26 0;
#X connect 18 0 26 0;
#X connect 19 0 20 0;
#X connect 20 0 10 0;
#X connect 21 0 19 0;
#X connect 22 0 7 0;
#X connect 22 1 24 0;
#X connect 22 2 8 0;
#X connect 22 3 23 0;
#X connect 23 0 2 0;
#X connect 24 0 2 0;
#X connect 25 0 6 0;
#X connect 25 1 6 1;
#X connect 25 2 6 2;
#X connect 26 0 13 0;
