#N canvas 703 152 573 373 10;
#X obj 64 92 mtof;
#X obj 64 59 unpack 0 0;
#X obj 118 274 *~;
#X obj 131 102 sel 0;
#X obj 131 173 vline~;
#X msg 131 135 0 500;
#X msg 179 136 0 \, 1 500;
#X obj 64 14 inlet;
#X obj 115 315 outlet~;
#X obj 276 123 osc~ 1;
#X obj 276 83 * 0.01;
#X obj 277 157 *~ 1;
#X obj 277 192 +~;
#X obj 278 223 osc~;
#X obj 277 17 inlet;
#X obj 347 15 inlet;
#X connect 0 0 12 1;
#X connect 1 0 0 0;
#X connect 1 1 3 0;
#X connect 2 0 8 0;
#X connect 3 0 5 0;
#X connect 3 1 6 0;
#X connect 4 0 2 1;
#X connect 5 0 4 0;
#X connect 6 0 4 0;
#X connect 7 0 1 0;
#X connect 9 0 11 0;
#X connect 10 0 9 0;
#X connect 11 0 12 0;
#X connect 12 0 13 0;
#X connect 13 0 2 0;
#X connect 14 0 10 0;
#X connect 15 0 11 1;
#X coords 0 373 1 372 175 70 0;
